<svg xmlns="http://www.w3.org/2000/svg" viewBox="0 0 72 72" fill="none">
  <defs>
    <radialGradient id="favTomato" cx="38%" cy="32%" r="62%">
      <stop offset="0%" stop-color="#F27D6C"/>
      <stop offset="70%" stop-color="#E85D4A"/>
      <stop offset="100%" stop-color="#C94A3A"/>
    </radialGradient>
  </defs>
  <path d="M36 18 L36 10" stroke="#5E8A6E" stroke-width="2.5" stroke-linecap="round"/>
  <path d="M36 14 C30 10 24 14 22 18 C28 16 34 16 36 14" fill="#7BA68C"/>
  <path d="M36 12 C42 8 48 12 50 16 C44 14 38 14 36 12" fill="#9DC4AE"/>
  <path d="M36 11 C34 7 38 5 40 8 C38 9 36 10 36 11" fill="#5E8A6E" opacity="0.6"/>
  <ellipse cx="36" cy="44" rx="24" ry="22" fill="url(#favTomato)"/>
  <path d="M36 22 C30 30 28 40 30 50 C32 56 34 58 36 60" fill="none" stroke="#C94A3A" stroke-width="0.8" opacity="0.4"/>
  <path d="M36 22 C42 30 44 40 42 50 C40 56 38 58 36 60" fill="none" stroke="#C94A3A" stroke-width="0.8" opacity="0.4"/>
  <ellipse cx="28" cy="36" rx="6" ry="9" fill="white" opacity="0.12"/>
</svg>
